<?xml version="1.0" standalone="no"?>
<!DOCTYPE svg PUBLIC "-//W3C//DTD SVG 20010904//EN"
 "http://www.w3.org/TR/2001/REC-SVG-20010904/DTD/svg10.dtd">
<svg version="1.0" xmlns="http://www.w3.org/2000/svg"
 width="256.000000pt" height="256.000000pt" viewBox="0 0 256.000000 256.000000"
 preserveAspectRatio="xMidYMid meet">

<g transform="translate(0.000000,256.000000) scale(0.100000,-0.100000)"
fill="#000000" stroke="none">
<path d="M710 2109 c-123 -133 -122 -282 1 -423 56 -63 33 -58 -34 9 -62 60
-99 118 -118 184 -12 41 -14 43 -20 20 -4 -13 -7 -53 -8 -90 -1 -83 30 -150
101 -214 28 -25 45 -45 39 -45 -19 0 -106 47 -139 74 -16 15 -33 26 -37 26 -3
0 8 -27 26 -60 35 -65 80 -108 150 -140 l44 -20 -65 4 c-36 2 -74 7 -85 12
-17 6 -17 4 5 -20 39 -43 103 -76 159 -83 28 -3 49 -8 46 -11 -3 -4 -36 -11
-73 -17 l-67 -12 45 -23 c34 -18 60 -24 109 -24 55 0 61 -1 45 -13 -10 -7 -33
-19 -51 -25 -45 -16 -41 -26 13 -34 41 -6 70 -1 134 23 8 3 -1 -11 -19 -31
l-35 -36 31 0 c16 0 47 11 67 25 36 25 45 20 26 -15 -9 -17 -8 -18 17 -9 16 5
40 21 56 34 27 24 27 25 25 137 0 62 -3 99 -5 82 -5 -37 -26 -60 -66 -69 -23
-6 -26 -5 -20 10 5 15 2 17 -20 12 -14 -4 -32 -4 -41 -1 -13 5 -12 9 7 25 l22
18 -30 1 c-16 1 -39 5 -50 9 -17 7 -16 9 12 15 47 11 49 23 4 31 -22 3 -47 13
-58 20 -17 13 -16 14 9 15 35 0 59 10 52 21 -3 5 -18 9 -34 9 -17 0 -40 11
-57 26 -24 22 -25 24 -7 19 12 -3 32 -1 45 4 l24 9 -27 11 c-30 11 -68 46 -68
61 0 5 16 0 35 -11 27 -16 35 -18 35 -7 0 8 -5 19 -11 25 -6 6 -15 29 -20 51
-5 23 -23 63 -39 89 -58 92 -74 195 -46 303 8 30 13 57 10 59 -2 2 -22 -16
-44 -40z"/>
<path d="M1817 2101 c10 -35 14 -81 11 -135 -2 -68 -8 -93 -34 -142 -17 -33
-37 -59 -45 -58 -11 1 -14 -8 -11 -32 3 -21 -4 -49 -17 -74 -23 -44 -13 -52
27 -24 12 8 22 12 22 9 0 -19 -23 -44 -49 -55 -39 -16 -29 -33 15 -28 l35 4
-24 -23 c-12 -13 -43 -27 -67 -32 -48 -9 -40 -18 20 -23 l35 -3 -32 -18 c-18
-9 -46 -17 -63 -17 -40 0 -30 -17 16 -26 44 -8 36 -17 -24 -24 l-47 -6 30 -16
c26 -14 27 -17 12 -23 -9 -4 -29 -4 -43 -1 -21 6 -25 4 -21 -8 5 -12 0 -16
-16 -16 -31 0 -65 26 -70 53 -2 12 -5 -23 -5 -78 l-1 -100 36 -28 c47 -35 66
-36 53 -2 -12 31 -10 31 36 0 20 -14 50 -25 66 -25 l28 0 -32 29 c-18 16 -31
32 -28 35 3 3 25 -2 49 -10 42 -14 131 -11 131 5 0 4 -15 12 -33 19 -18 6 -41
18 -51 25 -16 12 -10 13 45 13 48 0 75 6 109 23 50 27 50 27 -32 36 -62 7 -80
25 -25 25 43 0 125 40 162 79 30 32 30 32 4 23 -41 -16 -139 -26 -139 -14 0 6
12 13 28 17 62 14 146 93 177 167 l15 38 -51 -39 c-47 -35 -129 -76 -129 -65
0 3 23 27 50 54 67 65 90 117 89 200 0 36 -4 74 -8 85 -6 16 -11 10 -25 -32
-21 -63 -80 -147 -134 -190 -23 -18 -43 -33 -47 -33 -3 0 16 26 41 57 65 79
84 125 84 204 0 80 -29 144 -94 208 l-45 44 16 -52z"/>
<path d="M1371 1944 c0 -11 3 -14 6 -6 3 7 2 16 -1 19 -3 4 -6 -2 -5 -13z"/>
<path d="M1187 1820 c21 -24 27 -26 20 -6 -3 8 -1 17 6 20 7 2 0 5 -15 5 -27
1 -27 0 -11 -19z"/>
<path d="M1226 1823 c-6 -14 -5 -15 5 -6 7 7 10 15 7 18 -3 3 -9 -2 -12 -12z"/>
<path d="M1130 1820 c-9 -6 -10 -10 -3 -10 6 0 15 5 18 10 8 12 4 12 -15 0z"/>
<path d="M1370 1799 c0 -5 5 -7 10 -4 6 3 10 8 10 11 0 2 -4 4 -10 4 -5 0 -10
-5 -10 -11z"/>
<path d="M1126 1772 c-2 -4 10 -6 29 -4 18 2 43 -1 56 -8 23 -11 23 -10 5 4
-21 17 -81 22 -90 8z"/>
<path d="M1365 1760 c3 -5 8 -10 11 -10 2 0 4 5 4 10 0 6 -5 10 -11 10 -5 0
-7 -4 -4 -10z"/>
<path d="M1410 1659 c0 -5 5 -7 10 -4 6 3 10 8 10 11 0 2 -4 4 -10 4 -5 0 -10
-5 -10 -11z"/>
<path d="M1410 1594 c0 -8 5 -12 10 -9 6 4 8 11 5 16 -9 14 -15 11 -15 -7z"/>
<path d="M1185 1543 c22 -3 44 -9 50 -14 5 -5 27 -9 50 -9 23 0 45 4 51 9 5 5
27 11 49 14 l40 4 -47 1 c-26 1 -50 -2 -53 -8 -3 -5 -21 -10 -40 -10 -19 0
-37 5 -40 10 -3 6 -27 9 -53 8 l-47 -1 40 -4z"/>
<path d="M1107 1463 c-3 -5 18 -7 46 -5 86 5 96 9 25 11 -37 0 -69 -2 -71 -6z"/>
<path d="M1320 1455 c-7 -9 -8 -15 -2 -15 5 0 12 7 16 15 3 8 4 15 2 15 -2 0
-9 -7 -16 -15z"/>
<path d="M1373 1463 c9 -2 23 -2 30 0 6 3 -1 5 -18 5 -16 0 -22 -2 -12 -5z"/>
<path d="M1444 1455 c21 -16 32 -13 21 4 -3 6 -14 11 -23 11 -15 -1 -15 -2 2
-15z"/>
<path d="M1317 1288 c-43 -44 -65 -71 -50 -60 37 27 148 146 132 141 -2 -1
-39 -37 -82 -81z"/>
<path d="M1180 1185 c-25 -13 -41 -24 -37 -25 11 0 87 39 87 45 0 7 0 7 -50
-20z"/>
<path d="M1091 1169 c0 -8 6 -24 15 -35 8 -10 12 -13 8 -5 -3 7 0 18 7 23 11
8 10 9 -3 4 -10 -3 -18 1 -21 12 -4 14 -5 14 -6 1z"/>
<path d="M1218 1113 c34 -2 88 -2 120 0 31 2 3 3 -63 3 -66 0 -92 -1 -57 -3z"/>
<path d="M1370 1087 c0 -18 43 -91 47 -80 3 7 -7 29 -21 50 -14 21 -26 34 -26
30z"/>
<path d="M1160 1070 c0 -5 -13 -25 -30 -43 -37 -42 -39 -59 -4 -26 31 29 59
79 44 79 -5 0 -10 -4 -10 -10z"/>
<path d="M1175 1024 c-8 -20 -15 -39 -15 -42 0 -3 -12 -21 -27 -41 -33 -43
-61 -125 -68 -201 l-6 -55 29 60 c56 114 61 114 55 -5 -4 -72 -1 -119 8 -150
l13 -45 6 60 c7 66 38 172 52 181 6 4 6 -10 2 -33 -18 -90 -3 -245 32 -328
l12 -29 17 39 c31 75 47 175 41 258 -4 42 -4 77 -2 77 10 0 37 -108 44 -172
l7 -63 19 59 c19 59 19 175 0 221 -19 47 27 -10 56 -69 29 -60 29 -61 30 -25
0 37 -26 137 -41 155 -5 6 -6 13 -3 16 3 4 -11 27 -30 53 -20 25 -36 50 -36
55 0 15 -20 63 -25 58 -2 -2 2 -24 9 -48 15 -51 31 -170 22 -170 -13 0 -58
106 -63 151 -3 27 -7 48 -9 46 -2 -2 -6 -71 -8 -153 -4 -146 -10 -194 -26
-194 -16 0 -30 103 -31 228 l-1 127 -14 -62 c-7 -35 -22 -80 -33 -100 l-20
-38 0 55 c-1 30 6 79 13 108 16 61 13 67 -9 16z"/>
<path d="M1470 906 c0 -2 8 -10 18 -17 15 -13 16 -12 3 4 -13 16 -21 21 -21
13z"/>
</g>
</svg>
